<svg id="Layer_1" data-name="Layer 1" xmlns="http://www.w3.org/2000/svg" viewBox="0 0 190 37.15"><defs><style>.cls-1{fill:#606161;}</style></defs><path class="cls-1" d="M188.48,2.65,188.21,4H187l-1.1,5.26h-1.78L185.18,4h-1l.28-1.3h1L185.6,2a4.83,4.83,0,0,1,.32-1.12,1.59,1.59,0,0,1,.63-.63A2.29,2.29,0,0,1,187.64,0a5.42,5.42,0,0,1,1.72.3L189,1.56a3.4,3.4,0,0,0-1-.21.53.53,0,0,0-.45.19,2,2,0,0,0-.2.65l-.1.46Z"/><path class="cls-1" d="M49.2,9.21H47.44l-.33-7.57L45.67,9.21H44L45.88.15h2.66l.27,6.35L51.9.15h2.69L52.7,9.21H51L52.78,1.7Z"/><path class="cls-1" d="M55.9,2.65h1.77L56.3,9.21H54.52Zm.52-2.5h1.77l-.33,1.61H56.08Z"/><path class="cls-1" d="M62.49,6.74,64.21,7A3.57,3.57,0,0,1,63,8.77a3.21,3.21,0,0,1-1.93.6,2.65,2.65,0,0,1-2-.75,2.81,2.81,0,0,1-.74-2.06,4.69,4.69,0,0,1,.45-2A3.47,3.47,0,0,1,60.08,3a3.74,3.74,0,0,1,2-.54,2.73,2.73,0,0,1,1.85.6,2.34,2.34,0,0,1,.78,1.6L63,4.88a1.22,1.22,0,0,0-.34-.81,1,1,0,0,0-.72-.26,1.39,1.39,0,0,0-1,.38,2.44,2.44,0,0,0-.69,1.15,4.68,4.68,0,0,0-.23,1.43,1.28,1.28,0,0,0,.28.89.93.93,0,0,0,.71.32,1.35,1.35,0,0,0,.82-.31A2,2,0,0,0,62.49,6.74Z"/><path class="cls-1" d="M66.88,9.21H65.1L67,.15h1.77l-.68,3.23a5,5,0,0,1,1.12-.68,3.18,3.18,0,0,1,1.12-.2A1.74,1.74,0,0,1,71.59,3a1.62,1.62,0,0,1,.46,1.2,7.19,7.19,0,0,1-.17,1.23l-.81,3.83H69.3l.82-3.91a5,5,0,0,0,.13-.81.72.72,0,0,0-.2-.53.78.78,0,0,0-.56-.2,1.41,1.41,0,0,0-.85.31,2.6,2.6,0,0,0-.81,1,9.31,9.31,0,0,0-.41,1.54Z"/><path class="cls-1" d="M74.18,2.65H76L74.58,9.21H72.81ZM74.7.15h1.77l-.33,1.61H74.37Z"/><path class="cls-1" d="M76.23,9.56l1.88.27a.83.83,0,0,0,.09.43.69.69,0,0,0,.3.25,1.25,1.25,0,0,0,.56.1,1.64,1.64,0,0,0,.91-.22,1.32,1.32,0,0,0,.41-.56,6.16,6.16,0,0,0,.25-1.05l.06-.31a2.94,2.94,0,0,1-1.9.77,2.05,2.05,0,0,1-1.58-.68,2.87,2.87,0,0,1-.62-2A5.24,5.24,0,0,1,77,4.45,3.27,3.27,0,0,1,78.19,3a2.83,2.83,0,0,1,1.55-.49,2.18,2.18,0,0,1,1.2.34,2.36,2.36,0,0,1,.85,1L82,2.65H83.7L82.56,8.12A16.58,16.58,0,0,1,82.09,10a3.21,3.21,0,0,1-.44.89,2,2,0,0,1-.62.56,2.84,2.84,0,0,1-.89.33,6.36,6.36,0,0,1-1.11.1,3.75,3.75,0,0,1-2.1-.48,1.75,1.75,0,0,1-.72-1.58A2.46,2.46,0,0,1,76.23,9.56Zm2.09-3.17a1.67,1.67,0,0,0,.34,1.14,1.05,1.05,0,0,0,.84.39,1.44,1.44,0,0,0,.9-.35,2.24,2.24,0,0,0,.67-1,3.82,3.82,0,0,0,.23-1.26,1.63,1.63,0,0,0-.38-1.12,1.15,1.15,0,0,0-.87-.43,1.23,1.23,0,0,0-.87.38,2.71,2.71,0,0,0-.66,1.16A3.67,3.67,0,0,0,78.32,6.39Z"/><path class="cls-1" d="M86.56,4.51l-1.73-.15a2.63,2.63,0,0,1,1-1.37,3.49,3.49,0,0,1,2-.49A2.86,2.86,0,0,1,89.69,3a1.55,1.55,0,0,1,.61,1.24,4.7,4.7,0,0,1,0,.63c0,.22-.16.81-.37,1.76a8.41,8.41,0,0,0-.26,1.64,3.32,3.32,0,0,0,.15.93H88a3.58,3.58,0,0,1-.13-.74,2.86,2.86,0,0,1-.89.67,2.52,2.52,0,0,1-1,.23,1.8,1.8,0,0,1-1.35-.54,1.86,1.86,0,0,1-.53-1.37A2,2,0,0,1,84.7,6a3.4,3.4,0,0,1,2.09-.68A8,8,0,0,0,88.48,5a1.91,1.91,0,0,0,.11-.59A.59.59,0,0,0,88.36,4a1.08,1.08,0,0,0-.68-.19,1.3,1.3,0,0,0-.75.2A.94.94,0,0,0,86.56,4.51Zm1.69,1.64-.43.09a4,4,0,0,0-1.74.46A.76.76,0,0,0,86,7.83.82.82,0,0,0,86.6,8a1.53,1.53,0,0,0,.75-.2,1.17,1.17,0,0,0,.53-.5,3.23,3.23,0,0,0,.32-1Z"/><path class="cls-1" d="M92.49,2.65h1.68L94,3.5a4.45,4.45,0,0,1,1.18-.77,2.81,2.81,0,0,1,1.15-.23A1.71,1.71,0,0,1,97.6,3a1.63,1.63,0,0,1,.47,1.23,8.29,8.29,0,0,1-.2,1.31L97.1,9.21H95.32l.78-3.72a7.07,7.07,0,0,0,.17-1,.69.69,0,0,0-.2-.53.77.77,0,0,0-.56-.2,1.55,1.55,0,0,0-.86.33A2.26,2.26,0,0,0,93.9,5a7,7,0,0,0-.44,1.56l-.57,2.69H91.12Z"/><path class="cls-1" d="M102.38,9.21l1.9-9.06h2.44a11.75,11.75,0,0,1,1.31,0,3.68,3.68,0,0,1,1,.22,2.73,2.73,0,0,1,.8.49,3.3,3.3,0,0,1,.63.75,3.67,3.67,0,0,1,.4,1A4.94,4.94,0,0,1,111,3.91a5.84,5.84,0,0,1-.55,2.6A5.19,5.19,0,0,1,109,8.31a4.24,4.24,0,0,1-1.67.77,8.76,8.76,0,0,1-1.79.13Zm2.17-1.45h1A6.47,6.47,0,0,0,107,7.63a2.2,2.2,0,0,0,.84-.47,4.14,4.14,0,0,0,.93-1.34,4.76,4.76,0,0,0,.37-2,2.67,2.67,0,0,0-.31-1.45,1.5,1.5,0,0,0-.77-.65,4.09,4.09,0,0,0-1.14-.11h-1.08Z"/><path class="cls-1" d="M117.87,6.48h-4.45c0,.07,0,.13,0,.16a1.5,1.5,0,0,0,.38,1.06,1.18,1.18,0,0,0,.91.4,1.52,1.52,0,0,0,1.38-.91l1.59.26a3.4,3.4,0,0,1-1.24,1.44,3.25,3.25,0,0,1-1.74.48,2.89,2.89,0,0,1-2.15-.84,3,3,0,0,1-.83-2.21,4,4,0,0,1,.75-2.4,3.36,3.36,0,0,1,2.91-1.42,2.49,2.49,0,0,1,1.91.74A2.88,2.88,0,0,1,118,5.33,5,5,0,0,1,117.87,6.48Zm-1.5-1.08a1.36,1.36,0,0,0,0-.18,1.58,1.58,0,0,0-.33-1.09,1.08,1.08,0,0,0-.87-.37,1.39,1.39,0,0,0-1,.42,2.16,2.16,0,0,0-.59,1.22Z"/><path class="cls-1" d="M119.84,2.65h1.68l-.15.67a4.31,4.31,0,0,1,1-.63,2.59,2.59,0,0,1,1-.19,2.09,2.09,0,0,1,1.66.71,3.1,3.1,0,0,1,.62,2.12,4.34,4.34,0,0,1-1.08,3,2.83,2.83,0,0,1-2.19,1,2.17,2.17,0,0,1-2-1.06l-.71,3.41h-1.78Zm1.06,3.76a1.72,1.72,0,0,0,.38,1.19,1.12,1.12,0,0,0,.88.43,1.41,1.41,0,0,0,.85-.32,2.34,2.34,0,0,0,.67-1.06A4,4,0,0,0,124,5.28a1.63,1.63,0,0,0-.35-1.12,1.14,1.14,0,0,0-.9-.4,1.37,1.37,0,0,0-.92.36,2.44,2.44,0,0,0-.65,1.07A4.1,4.1,0,0,0,120.9,6.41Z"/><path class="cls-1" d="M128.75,4.51,127,4.36a2.6,2.6,0,0,1,1-1.37A3.44,3.44,0,0,1,130,2.5a2.89,2.89,0,0,1,1.88.51,1.57,1.57,0,0,1,.6,1.24,4.7,4.7,0,0,1-.05.63c0,.22-.16.81-.37,1.76a9.29,9.29,0,0,0-.26,1.64,3.32,3.32,0,0,0,.15.93h-1.72a3,3,0,0,1-.13-.74,2.79,2.79,0,0,1-.9.67,2.52,2.52,0,0,1-1,.23,1.83,1.83,0,0,1-1.35-.54,1.86,1.86,0,0,1-.53-1.37A2,2,0,0,1,126.9,6,3.34,3.34,0,0,1,129,5.28,7.9,7.9,0,0,0,130.67,5a2,2,0,0,0,.12-.59.62.62,0,0,0-.23-.48,1.1,1.1,0,0,0-.68-.19,1.26,1.26,0,0,0-.75.2A1,1,0,0,0,128.75,4.51Zm1.69,1.64-.43.09a4,4,0,0,0-1.74.46.73.73,0,0,0-.29.6.71.71,0,0,0,.22.53.84.84,0,0,0,.59.21,1.57,1.57,0,0,0,.76-.2,1.28,1.28,0,0,0,.53-.5,3.27,3.27,0,0,0,.31-1Z"/><path class="cls-1" d="M134.56,2.65h1.66L136,3.92a2.54,2.54,0,0,1,2-1.42,2,2,0,0,1,.82.19l-.68,1.45a1.44,1.44,0,0,0-.51-.09,1.56,1.56,0,0,0-.93.35,2.33,2.33,0,0,0-.74.92,9,9,0,0,0-.52,1.84L135,9.21h-1.77Z"/><path class="cls-1" d="M138.66,4l.27-1.32h.87l.21-1,2-1.22-.47,2.27h1.08L142.38,4h-1.09l-.57,2.75a7.45,7.45,0,0,0-.16.85.39.39,0,0,0,.13.32.77.77,0,0,0,.47.11l.59,0-.28,1.32a4.91,4.91,0,0,1-.94.09A2.12,2.12,0,0,1,139.16,9a1.26,1.26,0,0,1-.42-1A8.5,8.5,0,0,1,139,6.61L139.52,4Z"/><path class="cls-1" d="M143.74,2.65h1.67l-.16.8a2.89,2.89,0,0,1,2.05-1,1.82,1.82,0,0,1,1.14.31,1.34,1.34,0,0,1,.51.85,2.69,2.69,0,0,1,1-.83,2.81,2.81,0,0,1,1.32-.33,1.73,1.73,0,0,1,1.23.42A1.47,1.47,0,0,1,152.91,4a6.13,6.13,0,0,1-.17,1.17l-.84,4h-1.77l.84-4c.1-.5.15-.78.15-.85a.57.57,0,0,0-.16-.43.7.7,0,0,0-.49-.16,1.48,1.48,0,0,0-1.18.7,4.86,4.86,0,0,0-.65,1.78l-.62,3h-1.77l.82-4a5.71,5.71,0,0,0,.15-.89.55.55,0,0,0-.18-.43.69.69,0,0,0-.48-.17,1.16,1.16,0,0,0-.6.18,1.61,1.61,0,0,0-.54.47,2.59,2.59,0,0,0-.4.78c-.05.15-.13.48-.24,1l-.63,3h-1.78Z"/><path class="cls-1" d="M160.07,6.48h-4.45c0,.07,0,.13,0,.16A1.5,1.5,0,0,0,156,7.7a1.18,1.18,0,0,0,.91.4,1.52,1.52,0,0,0,1.38-.91l1.59.26a3.4,3.4,0,0,1-1.24,1.44,3.25,3.25,0,0,1-1.74.48,2.89,2.89,0,0,1-2.15-.84,3,3,0,0,1-.83-2.21,4,4,0,0,1,.75-2.4,3.36,3.36,0,0,1,2.91-1.42,2.49,2.49,0,0,1,1.91.74,2.88,2.88,0,0,1,.71,2.09A5,5,0,0,1,160.07,6.48Zm-1.5-1.08a1.36,1.36,0,0,0,0-.18,1.58,1.58,0,0,0-.33-1.09,1.1,1.1,0,0,0-.87-.37,1.39,1.39,0,0,0-1,.42,2.16,2.16,0,0,0-.59,1.22Z"/><path class="cls-1" d="M162.12,2.65h1.68l-.18.85a4.62,4.62,0,0,1,1.18-.77A2.81,2.81,0,0,1,166,2.5a1.73,1.73,0,0,1,1.28.46,1.67,1.67,0,0,1,.47,1.23,7.55,7.55,0,0,1-.21,1.31l-.77,3.71H165l.77-3.72a7.92,7.92,0,0,0,.18-1,.72.72,0,0,0-.2-.53.78.78,0,0,0-.56-.2,1.58,1.58,0,0,0-.87.33,2.35,2.35,0,0,0-.75.87,7,7,0,0,0-.44,1.56l-.56,2.69h-1.78Z"/><path class="cls-1" d="M168.89,4l.28-1.32H170l.22-1,2-1.22-.48,2.27h1.09L172.61,4h-1.08L171,6.72c-.1.5-.15.78-.15.85a.39.39,0,0,0,.13.32.75.75,0,0,0,.47.11L172,8l-.27,1.32a4.91,4.91,0,0,1-.94.09A2.12,2.12,0,0,1,169.4,9,1.27,1.27,0,0,1,169,8a9.86,9.86,0,0,1,.23-1.39L169.75,4Z"/><path class="cls-1" d="M176.44,6.49a4,4,0,0,1,1-2.91,3.56,3.56,0,0,1,2.7-1.08,3.07,3.07,0,0,1,2.27.8,2.89,2.89,0,0,1,.82,2.15,4.06,4.06,0,0,1-1,2.76,3.47,3.47,0,0,1-2.74,1.16A3.63,3.63,0,0,1,177.86,9a2.47,2.47,0,0,1-1.07-1A3.21,3.21,0,0,1,176.44,6.49Zm5.05-1.27a1.4,1.4,0,0,0-.36-1,1.28,1.28,0,0,0-.95-.38,1.55,1.55,0,0,0-1,.36,2.18,2.18,0,0,0-.69,1,3.51,3.51,0,0,0-.25,1.24,1.6,1.6,0,0,0,.38,1.12,1.26,1.26,0,0,0,1,.42,1.5,1.5,0,0,0,1.22-.63A3.33,3.33,0,0,0,181.49,5.22Z"/><path class="cls-1" d="M48,36.37V20.22H42.19V16.93H57.64v3.29H51.88V36.37Z"/><path class="cls-1" d="M60.19,36.37V16.93h8.26a14.4,14.4,0,0,1,4.52.52,4.45,4.45,0,0,1,2.27,1.87,5.62,5.62,0,0,1,.84,3.06A5.16,5.16,0,0,1,74.8,26,6.2,6.2,0,0,1,71,27.79a9.26,9.26,0,0,1,2.1,1.63,21.77,21.77,0,0,1,2.24,3.16l2.37,3.79H73l-2.84-4.23a29.12,29.12,0,0,0-2.07-2.86,3.05,3.05,0,0,0-1.18-.81,6.66,6.66,0,0,0-2-.21h-.8v8.11Zm3.92-11.22H67a14.91,14.91,0,0,0,3.53-.24,2.08,2.08,0,0,0,1.1-.82,2.49,2.49,0,0,0,.4-1.46,2.37,2.37,0,0,0-.52-1.58A2.41,2.41,0,0,0,70,20.29c-.32-.05-1.28-.07-2.87-.07H64.11Z"/><path class="cls-1" d="M79.78,36.37V16.93H94.2v3.29H83.71v4.31h9.76V27.8H83.71v5.3H94.57v3.27Z"/><path class="cls-1" d="M115.43,36.37h-4.27L109.46,32h-7.77l-1.61,4.42H95.92l7.57-19.44h4.15Zm-7.23-7.69-2.68-7.21-2.62,7.21Z"/><path class="cls-1" d="M116.51,30.05l3.82-.38a4.66,4.66,0,0,0,1.4,2.83,4.23,4.23,0,0,0,2.85.9,4.38,4.38,0,0,0,2.85-.8,2.4,2.4,0,0,0,1-1.88,1.75,1.75,0,0,0-.4-1.17,3.18,3.18,0,0,0-1.41-.84c-.46-.16-1.51-.45-3.14-.85A10.61,10.61,0,0,1,119,25.93a5.11,5.11,0,0,1-1-6.69,5.25,5.25,0,0,1,2.43-2,9.52,9.52,0,0,1,3.82-.68,8.2,8.2,0,0,1,5.51,1.6,5.67,5.67,0,0,1,1.94,4.29l-3.92.17a3.37,3.37,0,0,0-1.08-2.16,4,4,0,0,0-2.49-.65,4.49,4.49,0,0,0-2.68.7,1.42,1.42,0,0,0-.62,1.21,1.49,1.49,0,0,0,.58,1.18,10.48,10.48,0,0,0,3.61,1.3,18.68,18.68,0,0,1,4.24,1.4,5.43,5.43,0,0,1,2.14,2,6.11,6.11,0,0,1-.15,6.23A5.62,5.62,0,0,1,128.77,36a11.14,11.14,0,0,1-4.23.7,8.42,8.42,0,0,1-5.67-1.7A7.44,7.44,0,0,1,116.51,30.05Z"/><path class="cls-1" d="M135.59,16.93h3.93V27.46a21.32,21.32,0,0,0,.15,3.25,3.08,3.08,0,0,0,1.2,1.91,4.11,4.11,0,0,0,2.59.73,3.94,3.94,0,0,0,2.52-.69A2.72,2.72,0,0,0,147,31a22.83,22.83,0,0,0,.17-3.31V16.93h3.93V27.14a26.51,26.51,0,0,1-.32,5,5.52,5.52,0,0,1-1.18,2.44,5.92,5.92,0,0,1-2.28,1.58,10,10,0,0,1-3.74.59,10.78,10.78,0,0,1-4.23-.64,6.11,6.11,0,0,1-2.27-1.67,5.41,5.41,0,0,1-1.1-2.16,23.26,23.26,0,0,1-.39-4.93Z"/><path class="cls-1" d="M155.25,36.37V16.93h8.26a14.52,14.52,0,0,1,4.53.52,4.47,4.47,0,0,1,2.26,1.87,5.63,5.63,0,0,1,.85,3.06A5.17,5.17,0,0,1,169.86,26a6.2,6.2,0,0,1-3.85,1.8,9.56,9.56,0,0,1,2.11,1.63,22.74,22.74,0,0,1,2.23,3.16l2.37,3.79H168l-2.84-4.23a29.12,29.12,0,0,0-2.07-2.86,3.05,3.05,0,0,0-1.18-.81,6.66,6.66,0,0,0-2-.21h-.8v8.11Zm3.92-11.22h2.91a14.86,14.86,0,0,0,3.52-.24,2.08,2.08,0,0,0,1.1-.82,2.49,2.49,0,0,0,.4-1.46,2.32,2.32,0,0,0-.52-1.58,2.38,2.38,0,0,0-1.48-.76c-.32-.05-1.27-.07-2.87-.07h-3.06Z"/><path class="cls-1" d="M178.94,36.37V28.19l-7.12-11.26h4.6L181,24.62l4.48-7.69H190l-7.15,11.29v8.15Z"/><path class="cls-1" d="M21.32,30.94l.22.06c-.18-.15-.15-.35-.15-.55,0-.4,0-.8,0-1.2,0-.2-.05-.41-.08-.61a2.42,2.42,0,0,1,0-.25.86.86,0,0,0-.11-.33,9.54,9.54,0,0,0-.72-1.24c-.1-.16-.19-.33-.29-.5a.24.24,0,0,1,0-.09,1.34,1.34,0,0,1,0-.2,1.4,1.4,0,0,0-.23-.93.42.42,0,0,1,0-.25.72.72,0,0,1,.27-.51.23.23,0,0,0,.07-.15c0-.38,0-.76,0-1.13a1,1,0,0,0-.15-.32c0-.06-.08-.1-.11-.16s-.11-.16-.09-.22S20,22,20.14,22a.28.28,0,0,0,.15-.15,1.73,1.73,0,0,1,.22-.31.7.7,0,0,0,.12-.33,2.13,2.13,0,0,1,.36-.78.76.76,0,0,0,.13-.44c0-.16,0-.31.05-.46s0-.23,0-.34l.09-1a.19.19,0,0,1,.09-.11l.54-.23s.06-.05.09-.08,0-.07,0-.09c.17-.1.09-.24.08-.38s-.1-.35.09-.47a1.89,1.89,0,0,1,.33-.13l.13,0a.29.29,0,0,1,.41-.28l.23.08a.19.19,0,0,0,.28-.13.78.78,0,0,0,.05-.14c0-.23.21-.35.37-.48a.36.36,0,0,0,.11-.16c0-.1.07-.2.1-.3s0,0,0,0,.16-.24.28-.31a1.92,1.92,0,0,1,.45-.18s.07.06.07.09v.34s0,.07,0,.08l-.34.19a1.32,1.32,0,0,0,.08.19.34.34,0,0,1,0,.43.61.61,0,0,0-.15.36c0,.19,0,.39-.06.59a1.11,1.11,0,0,0,0,.19A5.49,5.49,0,0,0,25,15.91a1.64,1.64,0,0,1,.21.25.32.32,0,0,1,0,.16c0,.25,0,.49,0,.74a1.43,1.43,0,0,0,.14-.34,2.58,2.58,0,0,0,0-.39l0-.62c0-.21,0-.42,0-.63a1.79,1.79,0,0,1,0-.4,1.74,1.74,0,0,1,.14-.27c0-.12.15-.13.24-.15a.37.37,0,0,0,.29-.17c.07-.1.21-.15.3-.24a.89.89,0,0,1,.74-.18h.36v0l-.06,0c-.42-.15-.5-.41-.57-.83s.18-.5.4-.68l.36-.27a.55.55,0,0,1-.16-.47c0-.08,0-.1.12-.08l.42.12a.35.35,0,0,0,.41-.07,1.45,1.45,0,0,1,.18-.17l.1,0a.68.68,0,0,1,.5.13l.36.23.45.34a.48.48,0,0,0,.34.13c.23,0,.46.06.69.05s.34,0,.44.2c.33.11.42.44.62.66a.15.15,0,0,0,.11.06,2.06,2.06,0,0,0,.43,0,.66.66,0,0,1,.49.15,4.56,4.56,0,0,0,1.2.57l.76.28.07.05a1.61,1.61,0,0,0,.42.36.14.14,0,0,1,.07.1l0,.39c0,.1,0,.16.14.18a.46.46,0,0,1,.33.45c0,.16.12.21.16.32a1.35,1.35,0,0,1,0,.29.11.11,0,0,1-.09,0,3.45,3.45,0,0,1-.46-.12l-.09,0a.2.2,0,0,0-.27.24c0,.1,0,.21,0,.32a.22.22,0,0,0,0,.11l.64.8a.58.58,0,0,1,.1.27,1.8,1.8,0,0,1,.08.39.29.29,0,0,1,0,.2.71.71,0,0,0-.11.4,3,3,0,0,0,0,.42c0,.14,0,.29-.05.43l-.06.41c0,.13,0,.25,0,.37a.15.15,0,0,1-.1.16.48.48,0,0,0-.34.35.16.16,0,0,1-.17.12h-.29c-.08,0-.1,0-.12.11l-.18.86a1,1,0,0,1-.12.3.27.27,0,0,1-.17.12c-.2.07-.2.06-.21.26v.07h-.72a.44.44,0,0,0-.41.28,2,2,0,0,0-.17.75,2.18,2.18,0,0,1-.09.23.25.25,0,0,0,0,.17,1.87,1.87,0,0,0,.15.32c.05.09.14.16.19.25s.19.08.29.1a.86.86,0,0,1,.28,0c.09,0,.15.13.26.23s.18-.13.27-.23.21-.25.3-.37.24-.09.35-.15.11,0,.12-.08a2.43,2.43,0,0,1,.45-.72,1.11,1.11,0,0,0,.14-.29c.07-.23.27-.34.42-.5a1.62,1.62,0,0,1,.85-.3.51.51,0,0,0,.23-.15.18.18,0,0,1,.21-.08l.59.08.63.09h0c.39,0,.47.33.61.59a1.36,1.36,0,0,0,.1.21,7.3,7.3,0,0,1,.36.67,1.7,1.7,0,0,1,0,.51c0,.18,0,.36.05.53a4.89,4.89,0,0,1,0,.54,1,1,0,0,0,.14.45s.05.07.05.11,0,.32,0,.48,0,.29.05.43a4.73,4.73,0,0,1,0,.53.45.45,0,0,0,.08.23.54.54,0,0,1,.09.24,1.21,1.21,0,0,0,.15.64.66.66,0,0,1-.12.78.78.78,0,0,0-.13.47c0,.15,0,.29-.05.44a3.44,3.44,0,0,1,0,.45c0,.19-.08.37-.1.56,0,.37-.36.5-.56.73l0,0c.06-.25-.14-.29-.3-.37l-.16-.07.21-.26-.52,0s0,0,0,.06a.24.24,0,0,1,0,.4l-.11.06a.23.23,0,0,0-.15.24,2.53,2.53,0,0,1-.06.61c0,.08-.12.14-.19.21a2,2,0,0,1-.84.45.26.26,0,0,0-.19.22,7.35,7.35,0,0,1-.28.83.62.62,0,0,0,0,.33.51.51,0,0,1-.07.43,1.18,1.18,0,0,1-.5.49.93.93,0,0,0-.28.28,4.9,4.9,0,0,0-.45.57.86.86,0,0,0-.13.38c0,.11-.06.12-.15.12l-1,0L33.11,37l-1,0-.75,0-1.08.07-1.15,0-.61,0h-.13v-.43H27l-2.74,0h-.67l-2.6,0h-.71l-1.94,0H18.2c.14-.18.27-.33.38-.5a.72.72,0,0,1,.49-.29.51.51,0,0,0,.38-.41,2.58,2.58,0,0,1,.34-.8c.21-.31.38-.64.57-1,.05-.08.14-.14.19-.22a2.27,2.27,0,0,0,.19-.34c.09-.22.17-.46.26-.68l.16-.29a.62.62,0,0,0,.07-.23C21.27,31.7,21.29,31.33,21.32,30.94Z"/><path class="cls-1" d="M12.76,1.29c.09.3-.16.35-.3.47a7.16,7.16,0,0,1-.61.48c-.14.09-.29.17-.44.25a.14.14,0,0,0-.1.16c0,.21-.05.32-.24.38l-.31.14c.11.18,0,.29-.11.42s-.13.19-.36.15H10.2l-.11,1.08a.42.42,0,0,0,.32-.33.12.12,0,0,1,.05-.1l1.19-.7.23.28-.24.16v0l.28-.07L12.15,4c.09,0,.15,0,.18.08a.16.16,0,0,0,.17.11l.89.06s0,0,.08,0a.52.52,0,0,0,.16.06c.12,0,.16,0,.18.15l0,.1.45-.07,0,0c0,.17.06.22.21.28s.15.13.14.19c0,.22.1.35.22.5a.68.68,0,0,0,.45.32c0,.15,0,.22.16.26s.11.13.17.2h-.05l0,.32h1.18c0-.17.14-.17.26-.2l.28-.06a.14.14,0,0,1,.12,0,1.85,1.85,0,0,1,.28.28.53.53,0,0,0,.39.18c.24,0,.48.08.72.1a.55.55,0,0,1,.38.16s.13,0,.14,0c.11-.2.31-.25.48-.34s.16-.1.16-.21a.27.27,0,0,1,.15-.21A9.86,9.86,0,0,0,21,5.89a1.73,1.73,0,0,1,.49-.11c.32,0,.64-.08,1-.12s.42,0,.63-.06L24,5.49l.27,0c.37,0,.73-.08,1.09-.14s.75-.15,1.13-.23L26.87,5s.07,0,.09,0c.23.17.46,0,.7,0A2.76,2.76,0,0,0,28,5l-.27.42a.7.7,0,0,0-.16.46c0,.26,0,.51-.05.76,0,.1,0,.15.12.16A.45.45,0,0,1,28,7a.07.07,0,0,0,.05,0,5.48,5.48,0,0,0,.57,0A.38.38,0,0,0,29,6.93h.76v.26l.83-.11L31.25,7a.14.14,0,0,1,.1.07c.11.36.2.73.33,1.08a.43.43,0,0,1-.13.5l-.05.06h.27a.37.37,0,0,1,.27.09,3.81,3.81,0,0,0,.41.29c.07.05.1.1.08.17a.37.37,0,0,0,.15.36.91.91,0,0,0,.29.1.27.27,0,0,1,.21.33.24.24,0,0,1-.25.18h-.16a.21.21,0,0,0-.24.15l-.34-.2a.13.13,0,0,0-.07,0c-.19,0-.39,0-.58,0l-.93-.06h-.09c-.17.15-.38.06-.57.08,0,0-.06-.05-.07-.09a.18.18,0,0,0-.15-.14l-.39-.11c.11.22-.07.27-.13.33a1.7,1.7,0,0,1,0,.32c0,.13,0,.29-.15.39s-.26.08-.3,0-.17-.07-.26-.06-.15,0-.16-.12a.36.36,0,0,0-.23-.29,2.12,2.12,0,0,1-.44-.35,1,1,0,0,0-.53-.21,6.71,6.71,0,0,0-.76-.13l-.75-.12a3.44,3.44,0,0,0-.45-.05c-.06,0-.12,0-.17.08s-.36.31-.56.43a1,1,0,0,1-.4.1l-1,.11-.62.07-.73.08a1.53,1.53,0,0,1-.3,0c-.23,0-.3.2-.34.36A.74.74,0,0,1,21,11a.44.44,0,0,0-.08.25.18.18,0,0,1-.09.12l-.62.28a.11.11,0,0,0-.09.13c0,.11,0,.16-.13.14h-.18l-.13.39c-.08,0-.18.17-.34.14l-.2-.08-.23-.09-.15,0c0-.13.07-.26.11-.38s0,0,0,0c.19-.09.18-.28.24-.44s.06-.15.16-.16.2,0,.24-.08a1.28,1.28,0,0,0,.16-.38s0-.06,0-.09-.06,0-.07.05l-.19.32-.64-.17,0,0c.06.38-.24.6-.4.89,0,0,0,0-.07,0l-.79.23V11h0c-.12.13-.3.2-.27.43a1.87,1.87,0,0,1,0,.41.14.14,0,0,1-.07.11.6.6,0,0,0-.32.24,4.21,4.21,0,0,0-.62,1,5.12,5.12,0,0,1-.43.64l-.92,1.23s-.06.07-.08.11a.41.41,0,0,0-.07.53.53.53,0,0,1,0,.11l-.6-.16A.24.24,0,0,1,14,15.6a1.29,1.29,0,0,0-.16-.17.65.65,0,0,1-.26-.7.56.56,0,0,1,.11-.2,2,2,0,0,1,.2-.28.19.19,0,0,0,0-.3l-.69.24c-.11,0-.15,0-.2-.08a.45.45,0,0,1,0-.6,0,0,0,0,0,0,0,1.18,1.18,0,0,0,.2-.81,2.25,2.25,0,0,1,.05-.22.51.51,0,0,0,0-.17L13.06,12h.16l0,0c-.06-.05-.11-.13-.18-.15-.48-.2-1-.38-1.43-.56-.06,0-.15,0-.14-.15s0-.25.12-.3.09-.09.08-.11,0-.19-.11-.21l-.85-.14L10,10.16,9.18,10l-.82-.15H8.21c-.31,0-.51-.23-.76-.35a5.33,5.33,0,0,0-.6-.23C6.41,9.16,6,9,5.52,8.9s-1-.29-1.57-.41c-.7-.16-1.41-.3-2.12-.45L1.56,8a.31.31,0,0,1-.08-.11c-.06-.2-.11-.39-.18-.59a.42.42,0,0,0-.42-.34,3.39,3.39,0,0,1-.41-.06V6.62H.38A.32.32,0,0,1,0,6.46c0-.07,0-.09,0-.15a3.1,3.1,0,0,1,1.2-.5A4,4,0,0,0,2.41,5.3,2.51,2.51,0,0,0,2.82,5a1,1,0,0,1,.46-.21l1.78-.38c.28-.06.56-.11.84-.18a.46.46,0,0,0,.2-.14c.11-.12.19-.27.31-.38a.89.89,0,0,1,.3-.11l.81-.18s.06-.06.09-.09l0-.08A.38.38,0,0,1,8,2.84a.15.15,0,0,0,.08,0c0-.21.22-.2.36-.23a.35.35,0,0,0,.26-.15A3.15,3.15,0,0,1,9,2.13a.26.26,0,0,1,.13-.06h.13a.42.42,0,0,0,.48-.25c.09-.16.21-.29.3-.45s.21-.13.33-.16L13,.56a.61.61,0,0,0,.18-.09.35.35,0,0,1,.14,0l.4.09a.18.18,0,0,1,.07,0,.67.67,0,0,1,.07.11c.12.16.15.29,0,.43a.26.26,0,0,1-.2.1Z"/></svg>